<?xml version="1.0" encoding="UTF-8" standalone="no"?>
<!DOCTYPE svg PUBLIC "-//W3C//DTD SVG 1.1//EN" "http://www.w3.org/Graphics/SVG/1.1/DTD/svg11.dtd">
<svg xmlns="http://www.w3.org/2000/svg" version="1.1" viewBox="0 0 1024 1024" width="1024.0pt" height="1024.0pt">
<path d="M 0.00 0.00 L 1024.00 0.00 L 1024.00 1024.00 L 0.00 1024.00 L 0.00 0.00 Z" fill="#ffffff" />
<path d="M 542.00 173.50 C 557.05 173.30 572.10 175.19 586.52 179.56 C 598.75 183.26 612.14 187.82 622.37 195.65 C 640.03 208.66 654.61 225.88 664.60 245.41 C 672.48 263.55 676.46 283.22 676.38 303.00 C 676.22 315.39 674.20 327.46 671.12 339.43 C 666.17 356.86 657.63 373.43 647.24 388.22 C 635.97 403.72 622.94 417.67 609.50 431.50 C 596.81 444.71 582.74 456.07 568.57 467.60 C 558.44 476.43 547.82 484.56 536.99 492.49 C 542.19 502.32 547.96 511.87 553.59 521.46 C 556.50 527.38 560.37 532.70 563.34 538.59 C 569.43 548.90 575.41 559.30 581.23 569.77 C 586.18 579.43 592.10 588.47 596.73 598.27 C 600.35 605.90 604.64 613.17 608.13 620.87 C 612.90 630.66 616.97 640.74 621.16 650.79 C 632.98 681.50 637.86 715.15 636.72 747.97 C 636.67 762.79 635.15 777.56 631.57 791.95 C 623.02 827.79 603.32 860.41 577.05 886.06 C 572.71 890.05 568.47 894.15 564.06 898.07 C 539.88 918.85 510.52 930.27 479.51 936.33 C 474.69 937.16 469.89 937.84 464.99 937.78 C 454.59 937.73 443.33 936.97 433.45 933.53 C 421.34 929.26 410.21 921.89 400.93 913.07 C 383.82 897.06 372.84 876.99 364.90 855.16 C 359.02 841.55 354.80 827.62 350.37 813.47 C 347.85 802.64 344.87 791.94 342.59 781.06 C 338.20 757.78 338.13 734.08 339.73 710.52 C 340.49 703.17 341.07 695.91 343.14 688.78 C 344.80 697.11 344.33 705.67 345.90 714.05 C 350.23 740.14 357.17 767.60 370.20 790.79 C 373.95 798.08 380.19 802.31 386.11 807.87 C 389.68 811.24 394.41 814.26 396.84 818.57 C 388.77 816.01 381.13 812.05 373.34 808.74 C 376.47 817.28 380.55 825.49 384.12 833.86 C 386.44 839.28 389.58 844.43 392.39 849.63 C 399.67 862.61 407.98 875.09 417.27 886.72 C 425.72 897.15 437.11 906.05 450.23 909.54 C 463.30 912.28 476.49 911.11 489.49 908.69 C 508.70 904.01 525.93 894.53 541.35 882.29 C 562.87 864.86 580.32 842.35 592.55 817.54 C 602.85 796.58 608.12 773.35 608.17 750.00 C 609.35 737.20 608.51 724.52 607.19 711.77 C 606.42 697.76 602.43 683.58 598.78 670.07 C 597.18 663.90 595.49 657.71 593.28 651.73 C 584.82 629.88 573.66 609.86 562.83 589.17 C 553.78 574.14 546.62 557.91 536.92 543.06 C 524.83 523.16 512.91 503.13 500.69 483.32 C 489.35 464.22 478.47 444.81 467.35 425.58 C 463.93 420.01 460.13 414.71 456.99 408.97 C 453.86 403.23 449.79 398.14 446.48 392.52 C 423.41 351.62 399.95 310.94 376.94 269.99 C 375.37 267.01 373.18 264.09 372.18 260.87 C 372.75 255.75 374.32 248.91 378.94 245.93 C 381.97 243.60 385.48 241.74 388.75 239.76 C 398.87 233.52 409.01 227.31 419.18 221.13 C 430.82 213.87 443.43 208.02 455.54 201.54 C 464.21 197.14 472.71 192.23 481.67 188.67 C 488.54 185.89 495.40 182.78 502.47 180.56 C 515.47 176.80 528.34 173.38 542.00 173.50 Z" fill="#2c306d" />
<path d="M 557.99 201.40 C 567.02 201.73 575.72 203.88 584.24 206.80 C 590.52 208.98 596.34 212.51 602.06 215.92 C 607.51 219.17 611.60 223.43 616.25 227.75 C 621.51 232.75 625.45 238.49 629.66 244.35 C 635.19 252.03 638.91 260.92 642.18 269.76 C 644.70 277.51 645.05 285.98 646.43 294.01 C 647.88 302.42 646.98 310.55 646.43 318.98 C 646.11 323.31 644.99 327.46 643.51 331.53 C 639.91 341.76 635.75 352.49 629.27 361.28 C 626.48 365.23 624.23 369.50 621.36 373.39 C 614.05 383.01 606.08 392.03 598.02 401.01 C 587.86 412.23 576.06 421.19 564.16 431.18 C 558.50 435.18 553.43 439.86 547.58 443.60 C 538.59 450.01 529.41 456.57 519.44 461.39 C 516.95 458.19 514.76 454.80 512.70 451.32 C 499.63 430.33 486.89 409.11 474.01 387.99 C 467.89 378.05 461.97 367.87 456.67 357.46 C 447.27 340.18 437.56 323.07 428.24 305.75 C 420.71 292.69 413.22 279.59 405.42 266.70 C 409.12 263.60 412.79 260.49 416.78 257.77 C 420.98 254.96 424.31 251.25 428.65 248.65 C 436.37 243.94 443.42 238.51 451.68 234.68 C 466.80 226.43 482.32 219.06 498.03 212.02 C 502.39 210.34 506.90 209.12 511.25 207.40 C 526.50 201.67 541.88 201.05 557.99 201.40 Z" fill="#ffffff" />
<path d="M 449.86 316.05 C 450.75 317.24 449.85 318.86 449.04 319.85 C 448.73 318.96 448.25 315.81 449.86 316.05 Z" fill="#2c306d" />
</svg>